<svg width="439" height="124" viewBox="0 0 439 124" fill="none" xmlns="http://www.w3.org/2000/svg">
<path d="M397.909 45.9673C395.8 45.2443 393.784 44.8828 391.86 44.8828H390.556V44.0624H417.442V98.5674C417.442 101.636 418.676 103.883 421.146 105.311V106.076H400.17V105.311C402.64 103.883 403.874 101.636 403.874 98.5674V50.3611C402.783 48.433 400.794 46.9684 397.909 45.9673Z" fill="white"/>
<path d="M419.176 44.8689V44.0624H439V44.5352L438.986 44.5491L438.958 44.994C437.719 45.7078 436.619 46.9313 435.657 48.6647C434.963 49.8976 434.339 51.39 433.784 53.1419H432.716V53.1002C432.087 51.8767 431.338 50.8292 430.468 49.9579C429.802 49.2626 429.081 48.6369 428.304 48.0808C426.519 46.8016 424.429 45.8839 422.034 45.3277C421.118 45.1145 420.165 44.9616 419.176 44.8689Z" fill="white"/>
<path d="M48.3408 105.795L48.2993 104.866C46.1853 103.645 44.4636 100.937 43.1343 96.7405H42.068C41.7726 99.0052 39.377 101.002 34.8813 102.73C31.6226 104.061 27.953 104.829 23.8727 105.032V105.795H48.3408ZM20.9371 44.7176V43.955H0V44.7176C2.46481 46.1411 3.69722 48.3873 3.69722 51.4562V98.3073C3.69722 101.367 2.46481 103.609 0 105.032V105.795H17.2537V51.4562C17.2537 48.3873 18.4815 46.1411 20.9371 44.7176Z" fill="white"/>
<path d="M104.539 43.955V44.7176C102.074 46.1411 100.842 48.3873 100.842 51.4562L100.786 90.0435C100.731 93.3527 99.72 96.1582 97.7537 98.4598C97.1998 99.0976 96.5766 99.7031 95.8843 100.276C97.7675 97.9006 98.7091 94.9935 98.7091 91.5549L98.7922 51.4562C98.7922 48.3873 97.5644 46.1411 95.1088 44.7176V43.955H104.539Z" fill="white"/>
<path d="M56.198 44.7176V43.955H77.1351V44.7176C74.6795 46.1411 73.4517 48.3873 73.4517 51.4562L73.5348 91.5549C73.5348 95.4649 74.7533 98.6817 77.1905 101.205C77.9567 101.972 78.7737 102.615 79.6414 103.132C79.8814 103.271 80.1261 103.405 80.3753 103.535C81.6216 104.154 82.9832 104.533 84.4603 104.672C84.8388 104.708 85.2311 104.727 85.6373 104.727C84.2156 105.032 82.6971 105.268 81.0815 105.434C80.8785 105.453 80.643 105.476 80.3753 105.503C80.1076 105.476 79.8676 105.453 79.6553 105.434C78.0397 105.268 76.5212 105.032 75.0995 104.727L74.8503 104.672C72.2193 104.089 69.8929 103.271 67.8712 102.217C66.745 101.626 65.7434 100.979 64.8664 100.276C64.1648 99.7031 63.537 99.0976 62.9832 98.4598C61.0168 96.1582 60.006 93.3527 59.9506 90.0435L59.8952 51.4562C59.8952 48.3873 58.6628 46.1411 56.198 44.7176Z" fill="white"/>
<path d="M229.878 43.955V44.7176C227.413 46.1411 226.181 48.3873 226.181 51.4562L226.126 90.0435C226.07 93.3527 225.059 96.1582 223.093 98.4598C222.539 99.0976 221.916 99.7031 221.224 100.276C223.107 97.9006 224.049 94.9935 224.049 91.5549L224.132 51.4562C224.132 48.3873 222.904 46.1411 220.448 44.7176V43.955H229.878Z" fill="white"/>
<path d="M181.537 44.7176V43.955H202.475V44.7176C200.019 46.1411 198.791 48.3873 198.791 51.4562L198.874 91.5549C198.874 95.4649 200.093 98.6817 202.53 101.205C203.296 101.972 204.113 102.615 204.981 103.132C205.221 103.271 205.466 103.405 205.715 103.535C206.961 104.154 208.323 104.533 209.8 104.672C210.178 104.708 210.571 104.727 210.977 104.727C209.555 105.032 208.036 105.268 206.421 105.434C206.218 105.453 205.982 105.476 205.715 105.503C205.447 105.476 205.207 105.453 204.995 105.434C203.379 105.268 201.861 105.032 200.439 104.727L200.19 104.672C197.559 104.089 195.232 103.271 193.211 102.217C192.084 101.626 191.083 100.979 190.206 100.276C189.504 99.7031 188.876 99.0976 188.323 98.4598C186.356 96.1582 185.345 93.3527 185.29 90.0435L185.235 51.4562C185.235 48.3873 184.002 46.1411 181.537 44.7176Z" fill="white"/>
<path d="M150.579 102.976L124.286 52.6088C121.201 46.8419 115.946 38.5402 113.606 35.826C110.554 32.7746 105.977 28.1976 101.4 27.4355V26.6719C110.554 28.1976 118.183 31.249 122.76 34.3003C127.005 37.4439 131.176 41.2338 135.018 47.3709L161.312 97.7381C164.396 103.505 169.651 111.807 171.991 114.521C175.043 117.572 179.62 122.149 184.197 122.911V123.675C175.043 122.149 167.414 119.098 162.837 116.047C158.592 112.903 154.421 109.113 150.579 102.976Z" fill="white"/>
<path d="M133.623 97.082L133.609 97.1098C131.605 100.933 131.184 103.673 132.348 105.33V106.093H118.356L118.412 105.302C121.155 105.2 123.644 104.464 125.879 103.094C128.16 101.696 130.062 99.697 131.586 97.0959L131.184 97.082H133.623Z" fill="white"/>
<path d="M170.68 44.1667V44.9998C167.937 45.1017 165.453 45.8329 163.227 47.1937C160.946 48.5914 159.044 50.5816 157.52 53.1642H155.497C157.492 49.3597 157.917 46.6706 156.772 45.097L156.73 44.1667H170.68Z" fill="white"/>
<path d="M239.621 44.8256V44.0624H255.77V105.948H239.621V105.184C242.085 103.76 243.318 101.517 243.318 98.4547V51.5691C243.318 48.498 242.085 46.2501 239.621 44.8256Z" fill="white"/>
<path d="M274.87 81.5093C274.427 81.611 273.975 81.6989 273.514 81.7729C273.514 81.7729 275.187 84.4973 276.973 87.4569C277.896 88.9863 281.47 94.6587 281.47 94.6587L281.571 94.8241C284.529 99.6432 286.752 103.265 290.584 105.266V106.076H275.664L266.861 91.8207C264.064 87.4646 260.536 80.6662 260.536 80.6662V79.8614C261.524 79.7689 262.474 79.6163 263.388 79.4035C265.778 78.8485 267.864 77.9327 269.646 76.6562C270.421 76.1012 271.141 75.4767 271.805 74.783C273.19 73.3954 274.26 71.5777 275.017 69.3299C275.728 67.2115 276.083 64.9498 276.083 62.5447V62.1839C276.083 59.7881 275.728 57.5264 275.017 55.3988C274.26 53.1509 273.19 51.3332 271.805 49.9457C271.141 49.2519 270.421 48.6275 269.646 48.0725C267.864 46.7959 265.778 45.8801 263.388 45.3251C262.474 45.1123 261.524 44.9597 260.536 44.8672V44.0624H269.699C271.434 44.1272 273.053 44.3307 274.558 44.6729C276.939 45.228 279.025 46.1437 280.815 47.4203C281.591 47.9753 282.311 48.5997 282.975 49.2935C284.341 50.6626 285.412 52.5913 286.187 55.0796C286.898 57.3737 287.253 59.7464 287.253 62.1978V62.5308C287.253 64.9914 286.898 67.3642 286.187 69.649C285.412 72.1374 284.418 73.9282 282.975 75.4351C282.311 76.1289 280.936 77.7361 280.16 78.2911C278.326 79.6044 276.973 80.6662 274.87 81.5093Z" fill="white"/>
<path d="M324.419 44.0624V44.737C321.451 46.4458 320.777 48.8292 320.642 51.4824V98.7007C320.777 101.354 321.451 103.692 324.419 105.401V106.076H303.419V105.401C306.387 103.692 307.061 101.354 307.196 98.7007V51.4824C307.061 48.8292 306.387 46.4458 303.419 44.737V44.0624H324.419Z" fill="white"/>
<path d="M376.514 44.7176C375.24 45.5403 374.128 46.8159 373.177 48.5444C372.485 49.7831 371.862 51.2713 371.308 53.0091H370.241L370.131 52.4545C369.706 50.0881 369.069 48.3827 368.22 47.3382C367.13 46.1272 365.247 45.3046 362.57 44.8701C361.121 44.8701 360.151 44.8932 359.662 44.9394C359.284 44.9672 358.914 45.018 358.554 45.092C357.936 45.1936 357.364 45.3508 356.837 45.5634C353.348 46.8852 351.603 50.1343 351.603 55.3108V56.5448C352.102 60.2145 356.168 64.9703 363.802 70.8122C365.63 72.1803 367.264 73.5391 368.704 74.8887C369.194 75.3416 369.655 75.7899 370.089 76.2336C373.893 80.1252 376.039 83.8919 376.528 87.5339V89.3641C376.528 93.9952 375.102 97.7388 372.249 100.595C371.585 101.288 370.865 101.912 370.089 102.467C368.298 103.743 366.212 104.658 363.83 105.212C362.325 105.554 360.705 105.758 358.97 105.822H351.63V104.907C353.237 104.907 356.316 104.676 357.516 104.214C361.005 102.892 362.75 99.643 362.75 94.4666V93.2326C362.252 89.5629 358.185 84.807 350.551 78.9651C348.723 77.597 347.089 76.2382 345.649 74.8887C345.159 74.4357 344.698 73.9874 344.264 73.5437C340.461 69.6522 338.314 65.8854 337.825 62.2434V60.4132C337.825 55.7822 339.251 52.0385 342.104 49.1822C342.768 48.489 343.489 47.865 344.264 47.3104C346.055 46.0348 348.141 45.1197 350.523 44.5651C352.028 44.2231 353.648 44.0197 355.383 43.955H376.514V44.7176Z" fill="white"/>
<path d="M217.188 8.38856H216.925C217.433 7.8894 218.231 7.63982 219.321 7.63982C220.668 7.63982 221.698 8.102 222.409 9.02636C223.23 9.84904 223.641 10.8705 223.641 12.0906V18.6489C223.641 20.6086 224.001 21.9905 224.721 22.7947H219.071C219.662 21.9905 219.958 20.6086 219.958 18.6489V12.0906C219.958 9.62257 219.034 8.38856 217.188 8.38856Z" fill="white"/>
<path d="M210.652 4.10415C210.652 2.884 210.44 2.01972 210.015 1.51132C211.954 1.30796 213.376 0.804192 214.28 0V18.6489C214.28 20.4052 214.64 21.7871 215.36 22.7947H209.711C210.338 21.9905 210.652 20.6086 210.652 18.6489V4.10415Z" fill="white"/>
<path d="M246.381 21.727C247.175 21.727 247.72 21.6254 248.015 21.422C247.12 22.3371 245.753 22.7947 243.916 22.7947C241.867 22.7947 240.233 22.0367 239.014 20.5208C237.888 19.1897 237.325 17.4519 237.325 15.3074C237.325 13.4587 237.782 11.8179 238.696 10.3852C239.702 8.86922 241.087 7.9541 242.85 7.63982C241.632 8.85998 241.022 10.9536 241.022 13.9208C241.022 15.9822 241.378 17.72 242.089 19.1342C243.104 20.8628 244.535 21.727 246.381 21.727Z" fill="white"/>
<path d="M246.187 12.5343C246.51 12.1183 246.672 11.5591 246.672 10.8566C246.672 9.53476 246.261 8.4625 245.44 7.63982C247.877 8.2499 249.252 9.88139 249.566 12.5343H246.187Z" fill="white"/>
<path d="M189.23 7.94486C191.28 6.72471 192.66 5.08859 193.371 3.03651H193.495V18.9678C193.495 21.4359 193.915 22.7623 194.756 22.9472L192.748 23.2384C190.828 23.2384 189.867 22.1707 189.867 20.0355V10.2604C189.867 9.12342 189.655 8.35158 189.23 7.94486Z" fill="white"/>
</svg>
